<svg width="16" height="16" viewBox="0 0 16 16" fill="none" xmlns="http://www.w3.org/2000/svg">
<path d="M8.275 11.9187L11.425 13.9187C11.8312 14.175 12.3312 13.7937 12.2125 13.325L11.3 9.7375C11.2753 9.63806 11.2792 9.53367 11.3113 9.43636C11.3434 9.33906 11.4023 9.25279 11.4812 9.1875L14.3062 6.83125C14.675 6.525 14.4875 5.90625 14.0062 5.875L10.3187 5.6375C10.2181 5.63165 10.1214 5.59661 10.0404 5.53667C9.95935 5.47674 9.89754 5.3945 9.8625 5.3L8.4875 1.8375C8.4511 1.73744 8.38479 1.651 8.29758 1.58992C8.21037 1.52884 8.10647 1.49608 8 1.49608C7.89352 1.49608 7.78963 1.52884 7.70241 1.58992C7.6152 1.651 7.54889 1.73744 7.5125 1.8375L6.1375 5.3C6.10245 5.3945 6.04064 5.47674 5.95962 5.53667C5.87859 5.59661 5.78186 5.63165 5.68125 5.6375L1.99375 5.875C1.5125 5.90625 1.325 6.525 1.69375 6.83125L4.51875 9.1875C4.59771 9.25279 4.65661 9.33906 4.68868 9.43636C4.72075 9.53367 4.72467 9.63806 4.7 9.7375L3.85625 13.0625C3.7125 13.625 4.3125 14.0812 4.79375 13.775L7.725 11.9187C7.8072 11.8665 7.90259 11.8387 8 11.8387C8.09741 11.8387 8.1928 11.8665 8.275 11.9187Z" fill="white" stroke="#ADB7BC" stroke-width="1.5" stroke-linecap="round" stroke-linejoin="round"/>
</svg>
