<svg width="50" height="50" viewBox="0 0 50 50" fill="none" xmlns="http://www.w3.org/2000/svg">
<path d="M38.0771 13.1687C37.8643 12.9558 37.6116 12.7869 37.3335 12.6717C37.0554 12.5564 36.7573 12.4971 36.4563 12.4971C36.1552 12.4971 35.8571 12.5564 35.579 12.6717C35.3009 12.7869 35.0482 12.9558 34.8354 13.1687L31.25 16.7562L30.6083 16.1146C28.175 13.6812 23.9083 13.6812 21.475 16.1146L12.7833 24.8062C11.5667 26.0229 10.8958 27.6458 10.8958 29.3729C10.8958 31.1 11.5667 32.7229 12.7833 33.9396L13.425 34.5812L9.83751 38.1687C9.62466 38.3816 9.45582 38.6343 9.34062 38.9124C9.22543 39.1905 9.16614 39.4885 9.16614 39.7896C9.16614 40.0906 9.22543 40.3886 9.34062 40.6667C9.45582 40.9448 9.62466 41.1975 9.83751 41.4104C10.0504 41.6232 10.3031 41.7921 10.5812 41.9073C10.8593 42.0225 11.1573 42.0818 11.4583 42.0818C11.7594 42.0818 12.0574 42.0225 12.3355 41.9073C12.6136 41.7921 12.8663 41.6232 13.0792 41.4104L16.6667 37.8229L17.3083 38.4646C18.525 39.6812 20.1458 40.3521 21.875 40.3521C23.6042 40.3521 25.225 39.6812 26.4417 38.4646L35.1333 29.7729C36.35 28.5562 37.0208 26.9354 37.0208 25.2062C37.0208 23.4771 36.35 21.8562 35.1333 20.6396L34.4917 19.9979L38.0792 16.4104C38.292 16.1974 38.4607 15.9447 38.5757 15.6665C38.6908 15.3883 38.7499 15.0902 38.7497 14.7891C38.7495 14.4881 38.69 14.19 38.5746 13.912C38.4592 13.634 38.2901 13.3814 38.0771 13.1687ZM31.8917 26.5312L23.2 35.2229C22.85 35.5729 22.3625 35.75 21.875 35.75C21.3875 35.75 20.9 35.575 20.55 35.2229L19.9083 34.5812L21.4125 33.0771C21.8424 32.6472 22.0839 32.0642 22.0839 31.4562C22.0839 30.8483 21.8424 30.2653 21.4125 29.8354C20.9826 29.4055 20.3996 29.164 19.7917 29.164C19.1837 29.164 18.6007 29.4055 18.1708 29.8354L16.6667 31.3396L16.025 30.6979C15.675 30.3479 15.4813 29.875 15.4813 29.3729C15.4813 28.8708 15.675 28.3979 16.025 28.0479L24.7167 19.3562C25.0667 19.0062 25.5375 18.8125 26.0417 18.8125C26.5458 18.8125 27.0167 19.0062 27.3667 19.3562L28.0083 19.9979L26.5042 21.5021C26.0743 21.9319 25.8328 22.515 25.8328 23.1229C25.8328 23.7308 26.0743 24.3139 26.5042 24.7437C26.934 25.1736 27.5171 25.4151 28.125 25.4151C28.7329 25.4151 29.316 25.1736 29.7458 24.7437L31.25 23.2396L31.8917 23.8812C32.2417 24.2312 32.4354 24.7041 32.4354 25.2062C32.4354 25.7083 32.2417 26.1812 31.8917 26.5312Z" fill="black"/>
</svg>
