<svg width="20" height="35" viewBox="0 0 20 35" fill="none" xmlns="http://www.w3.org/2000/svg">
<path d="M19.3134 0.683786C19.0972 0.467036 18.8403 0.295068 18.5576 0.177732C18.2748 0.0603971 17.9717 0 17.6655 0C17.3594 0 17.0562 0.0603971 16.7735 0.177732C16.4907 0.295068 16.2339 0.467036 16.0177 0.683786L0.544528 16.1569C0.371915 16.3292 0.23497 16.5338 0.141533 16.759C0.0480955 16.9843 0 17.2258 0 17.4696C0 17.7135 0.0480955 17.9549 0.141533 18.1802C0.23497 18.4054 0.371915 18.6101 0.544528 18.7823L16.0177 34.2554C16.93 35.1678 18.401 35.1678 19.3134 34.2554C20.2257 33.3431 20.2257 31.8721 19.3134 30.9597L5.83258 17.4603L19.332 3.96089C20.2257 3.06713 20.2257 1.57754 19.3134 0.683786Z" fill="#F1F1F5"/>
</svg>
