<svg width="40" height="40" viewBox="0 0 40 40" fill="none" xmlns="http://www.w3.org/2000/svg">
<path d="M20.9967 26.6667L15.6633 13.3333H12.33L8.99667 21.6667V21.67L6.99834 26.6667H10.5883L11.255 25H16.7383L17.405 26.6667H20.9967ZM12.5867 21.6667L13.9983 18.1417L15.4067 21.6667H12.5867ZM28.3333 13.3333H31.6667V26.6667H26.6667C25.3406 26.6667 24.0688 26.1399 23.1311 25.2022C22.1935 24.2645 21.6667 22.9927 21.6667 21.6667C21.6667 20.3406 22.1935 19.0688 23.1311 18.1311C24.0688 17.1934 25.3406 16.6667 26.6667 16.6667H28.3333V13.3333ZM26.6667 20C26.2246 20 25.8007 20.1756 25.4882 20.4882C25.1756 20.8007 25 21.2246 25 21.6667C25 22.1087 25.1756 22.5326 25.4882 22.8452C25.8007 23.1577 26.2246 23.3333 26.6667 23.3333H28.3333V20H26.6667ZM35 5H5C4.55798 5 4.13405 5.17559 3.82149 5.48816C3.50893 5.80072 3.33334 6.22464 3.33334 6.66667V33.3333C3.33334 33.7754 3.50893 34.1993 3.82149 34.5118C4.13405 34.8244 4.55798 35 5 35H35C35.442 35 35.866 34.8244 36.1785 34.5118C36.4911 34.1993 36.6667 33.7754 36.6667 33.3333V6.66667C36.6667 6.22464 36.4911 5.80072 36.1785 5.48816C35.866 5.17559 35.442 5 35 5ZM6.66667 31.6667V8.33333H33.3333V31.6667H6.66667Z" fill="black"/>
</svg>
