<svg width="200" height="200" viewBox="0 0 200 200" fill="none" xmlns="http://www.w3.org/2000/svg">
<circle cx="100" cy="100" r="100" fill="#F1F1F5"/>
<path d="M99.9994 104.167C111.505 104.167 120.833 94.8393 120.833 83.3333C120.833 71.8274 111.505 62.5 99.9994 62.5C88.4934 62.5 79.166 71.8274 79.166 83.3333C79.166 94.8393 88.4934 104.167 99.9994 104.167Z" stroke="#213481" stroke-width="3.5" stroke-linecap="round" stroke-linejoin="round"/>
<path d="M133.333 137.5C133.333 128.659 129.821 120.181 123.57 113.93C117.318 107.679 108.84 104.167 99.9993 104.167C91.1588 104.167 82.6803 107.679 76.4291 113.93C70.1779 120.181 66.666 128.659 66.666 137.5" stroke="#213481" stroke-width="3.5" stroke-linecap="round" stroke-linejoin="round"/>
<circle cx="164" cy="175" r="25" fill="#405AC6"/>
<path d="M166.083 168.333H161.916L159.833 170.833H157.333C156.891 170.833 156.467 171.009 156.154 171.321C155.842 171.634 155.666 172.058 155.666 172.5V180C155.666 180.442 155.842 180.866 156.154 181.179C156.467 181.491 156.891 181.667 157.333 181.667H170.666C171.108 181.667 171.532 181.491 171.845 181.179C172.157 180.866 172.333 180.442 172.333 180V172.5C172.333 172.058 172.157 171.634 171.845 171.321C171.532 171.009 171.108 170.833 170.666 170.833H168.166L166.083 168.333Z" stroke="white" stroke-width="1.04167" stroke-linecap="round" stroke-linejoin="round"/>
<path d="M164 178.333C165.381 178.333 166.5 177.214 166.5 175.833C166.5 174.453 165.381 173.333 164 173.333C162.619 173.333 161.5 174.453 161.5 175.833C161.5 177.214 162.619 178.333 164 178.333Z" stroke="white" stroke-width="1.04167" stroke-linecap="round" stroke-linejoin="round"/>
</svg>
