<svg width="24" height="24" viewBox="0 0 24 24" fill="none" xmlns="http://www.w3.org/2000/svg">
<path d="M12 20.25C12 20.25 2.625 15 2.625 8.62499C2.625 7.49801 3.01546 6.40584 3.72996 5.5343C4.44445 4.66275 5.43884 4.06568 6.54393 3.84466C7.64903 3.62364 8.79657 3.79233 9.79131 4.32203C10.7861 4.85172 11.5665 5.7097 12 6.74999C12.4335 5.7097 13.2139 4.85172 14.2087 4.32203C15.2034 3.79233 16.351 3.62364 17.4561 3.84466C18.5612 4.06568 19.5555 4.66275 20.27 5.5343C20.9845 6.40584 21.375 7.49801 21.375 8.62499C21.375 15 12 20.25 12 20.25Z" stroke="#191C1F" stroke-width="1.5" stroke-linecap="round" stroke-linejoin="round"/>
</svg>
