<svg width="23" height="22" viewBox="0 0 23 22" fill="none" xmlns="http://www.w3.org/2000/svg">
<path d="M10.5269 0.707009C10.8332 -0.235694 12.1668 -0.235693 12.4731 0.707011L14.4865 6.90335C14.6234 7.32494 15.0163 7.61038 15.4596 7.61038H21.9748C22.966 7.61038 23.3782 8.87878 22.5763 9.4614L17.3053 13.291C16.9467 13.5515 16.7966 14.0134 16.9336 14.435L18.9469 20.6313C19.2532 21.574 18.1743 22.3579 17.3724 21.7753L12.1014 17.9457C11.7428 17.6852 11.2572 17.6852 10.8986 17.9457L5.62764 21.7753C4.82573 22.3579 3.74677 21.574 4.05307 20.6313L6.06638 14.4349C6.20337 14.0134 6.0533 13.5515 5.69468 13.291L0.42375 9.4614C-0.378161 8.87878 0.033968 7.61038 1.02519 7.61038H7.54041C7.98369 7.61038 8.37656 7.32494 8.51355 6.90335L10.5269 0.707009Z" fill="white"/>
</svg>
