<svg width="40" height="40" viewBox="0 0 40 40" fill="none" xmlns="http://www.w3.org/2000/svg">
<path d="M37.5 5.82001L35.9 6.28876L7.265 15H2.5V25H7.26625L9.72625 25.7425L9.68875 25.8588V25.8988C8.88625 28.5388 10.3725 31.4738 13.1263 32.3038C13.1388 32.3075 13.1538 32.3 13.1637 32.3038C15.8175 33.11 18.755 31.6413 19.5712 28.8663L19.6087 28.7488L35.9 33.7113L37.5 34.1788V5.82001ZM35 9.18001V30.82L7.85 22.5375L7.69625 22.5H5V17.5H7.695L7.85125 17.4625L35 9.18001ZM12.1088 26.4838L17.2262 28.0088L17.1888 28.125V28.1625C16.7588 29.625 15.2063 30.34 13.8688 29.9213C12.4062 29.4925 11.6537 27.9788 12.0712 26.64V26.6025L12.1088 26.4838Z" fill="black"/>
</svg>
