<svg width="20" height="20" viewBox="0 0 20 20" fill="none" xmlns="http://www.w3.org/2000/svg">
<path d="M8.23319 8.23334C7.98757 8.46221 7.79056 8.73821 7.65392 9.04488C7.51729 9.35154 7.44381 9.68259 7.43789 10.0183C7.43197 10.3539 7.49372 10.6874 7.61945 10.9987C7.74519 11.31 7.93234 11.5927 8.16973 11.8301C8.40713 12.0675 8.68991 12.2547 9.0012 12.3804C9.3125 12.5061 9.64593 12.5679 9.9816 12.562C10.3173 12.5561 10.6483 12.4826 10.955 12.3459C11.2617 12.2093 11.5377 12.0123 11.7665 11.7667" stroke="#404040" stroke-width="2" stroke-linecap="round" stroke-linejoin="round"/>
<path d="M8.94141 4.23332C9.2925 4.18958 9.64593 4.16732 9.99974 4.16666C15.8331 4.16666 18.3331 9.99999 18.3331 9.99999C17.9605 10.7976 17.4933 11.5474 16.9414 12.2333" stroke="#404040" stroke-width="2" stroke-linecap="round" stroke-linejoin="round"/>
<path d="M5.50866 5.50833C3.85137 6.63718 2.52522 8.18771 1.66699 10C1.66699 10 4.16699 15.8333 10.0003 15.8333C11.5969 15.8376 13.1593 15.3709 14.492 14.4917" stroke="#404040" stroke-width="2" stroke-linecap="round" stroke-linejoin="round"/>
<path d="M1.66699 1.66666L18.3337 18.3333" stroke="#404040" stroke-width="2" stroke-linecap="round" stroke-linejoin="round"/>
</svg>
