<svg width="40" height="40" viewBox="0 0 40 40" fill="none" xmlns="http://www.w3.org/2000/svg">
<path d="M25.6666 26.6667C25.1666 26.6667 24.6666 26.1667 24.6666 25.6667C24.6666 25.1667 25.1666 24.6667 25.6666 24.6667C26.1666 24.6667 26.6666 25.1667 26.6666 25.6667C26.6666 26.1667 26.1666 26.6667 25.6666 26.6667ZM36.3333 29.6667L30.3333 23.6667C30 23.5 29.6666 23.3333 29.3333 23.3333H24.6666C24 23.3333 23.3333 24 23.3333 24.6667V29.3333C23.3333 29.6667 23.5 30 23.6666 30.3333L29.6666 36.3333C29.8333 36.5 30.1666 36.6667 30.6666 36.6667C31.1666 36.6667 31.3333 36.5 31.6666 36.3333L36.3333 31.6667C36.5 31.5 36.6666 31.1667 36.6666 30.6667C36.6666 30.3333 36.5 30 36.3333 29.6667ZM16.6666 6.66667C13 6.66667 9.99998 9.66667 9.99998 13.3333C9.99998 17 13 20 16.6666 20C20.3333 20 23.3333 17 23.3333 13.3333C23.3333 9.66667 20.3333 6.66667 16.6666 6.66667ZM16.6666 10C18.5 10 20 11.5 20 13.3333C20 15.1667 18.5 16.6667 16.6666 16.6667C14.8333 16.6667 13.3333 15.1667 13.3333 13.3333C13.3333 11.5 14.8333 10 16.6666 10ZM16.6666 21.6667C12.1666 21.6667 3.33331 23.8333 3.33331 28.3333V33.3333H22L21.3333 32.6667C20.6666 32 20.1666 31.1667 20 30.1667H6.49998V28.3333C6.49998 27.3333 11.6666 24.8333 16.6666 24.8333C17.8333 24.8333 19 25 20 25.1667V24.6667C20 23.6667 20.3333 22.8333 20.8333 22.1667C19.3333 21.8333 17.8333 21.6667 16.6666 21.6667Z" fill="black"/>
</svg>
