<svg width="45" height="45" viewBox="0 0 45 45" fill="none" xmlns="http://www.w3.org/2000/svg">
<path d="M30.9374 12.6562H36.6974C37.0458 12.6566 37.3817 12.7862 37.6399 13.0201C37.8982 13.2539 38.0604 13.5752 38.0953 13.9219L38.9531 22.5H36.1237L35.4206 15.4688H30.9374V19.6875C30.9374 20.0605 30.7893 20.4181 30.5256 20.6819C30.2618 20.9456 29.9042 21.0938 29.5312 21.0938C29.1582 21.0938 28.8005 20.9456 28.5368 20.6819C28.2731 20.4181 28.1249 20.0605 28.1249 19.6875V15.4688H16.8749V19.6875C16.8749 20.0605 16.7268 20.4181 16.4631 20.6819C16.1993 20.9456 15.8417 21.0938 15.4687 21.0938C15.0957 21.0938 14.738 20.9456 14.4743 20.6819C14.2106 20.4181 14.0624 20.0605 14.0624 19.6875V15.4688H9.57651L7.32651 37.9688H22.4999V40.7812H5.77119C5.57478 40.7811 5.38059 40.7397 5.20112 40.6599C5.02166 40.5801 4.8609 40.4636 4.72921 40.3178C4.59753 40.1721 4.49783 40.0004 4.43654 39.8138C4.37526 39.6272 4.35374 39.4298 4.37338 39.2344L6.90463 13.9219C6.93947 13.5752 7.10173 13.2539 7.35998 13.0201C7.61822 12.7862 7.95407 12.6566 8.30244 12.6562H14.0624V11.6747C14.0624 6.79781 17.8199 2.8125 22.4999 2.8125C27.1799 2.8125 30.9374 6.79781 30.9374 11.6747V12.6591V12.6562ZM28.1249 12.6562V11.6747C28.1249 8.31656 25.5881 5.625 22.4999 5.625C19.4118 5.625 16.8749 8.31656 16.8749 11.6747V12.6591H28.1249V12.6562ZM36.9759 33.9188L33.7499 30.6956V40.7812C33.7499 41.1542 33.6018 41.5119 33.3381 41.7756C33.0743 42.0393 32.7167 42.1875 32.3437 42.1875C31.9707 42.1875 31.613 42.0393 31.3493 41.7756C31.0856 41.5119 30.9374 41.1542 30.9374 40.7812V30.6956L27.7143 33.9188C27.5846 34.0531 27.4294 34.1602 27.2579 34.2339C27.0863 34.3076 26.9018 34.3464 26.715 34.348C26.5283 34.3496 26.3431 34.3141 26.1703 34.2433C25.9975 34.1726 25.8405 34.0682 25.7085 33.9362C25.5764 33.8041 25.472 33.6471 25.4013 33.4743C25.3306 33.3015 25.295 33.1163 25.2966 32.9296C25.2982 32.7429 25.337 32.5583 25.4107 32.3868C25.4844 32.2152 25.5916 32.06 25.7259 31.9303L31.3509 26.3053C31.6146 26.0417 31.9722 25.8936 32.3451 25.8936C32.718 25.8936 33.0756 26.0417 33.3393 26.3053L38.9643 31.9303C39.0986 32.06 39.2058 32.2152 39.2795 32.3868C39.3532 32.5583 39.392 32.7429 39.3936 32.9296C39.3952 33.1163 39.3596 33.3015 39.2889 33.4743C39.2182 33.6471 39.1138 33.8041 38.9817 33.9362C38.8497 34.0682 38.6927 34.1726 38.5199 34.2433C38.3471 34.3141 38.1619 34.3496 37.9752 34.348C37.7884 34.3464 37.6039 34.3076 37.4323 34.2339C37.2608 34.1602 37.1056 34.0531 36.9759 33.9188Z" fill="black"/>
</svg>
